<svg width="200" height="200" viewBox="0 0 200 200" fill="none" xmlns="http://www.w3.org/2000/svg">
 <style>
    .line { fill: #F1EEE3; }

    @media (prefers-color-scheme: dark) {
      .line { fill: #523A04; }
    }
  </style>
<path d="M132 116H116V132H132V116Z" fill="#FCC800"/>
<rect x="116" y="132" width="52" height="4" class="line"/>
<rect x="180" y="120" width="16" height="16" fill="#FCC800"/>
<rect x="180" y="100" width="16" height="16" fill="#FCC800"/>
<rect x="180" y="80" width="16" height="16" fill="#FCC800"/>
<rect x="148" y="72" width="16" height="4" class="line"/>
<path d="M196 16H180V32H196V16Z" fill="#FCC800"/>
<rect x="144" y="12" width="52" height="4" class="line"/>
<rect x="116" y="52" width="16" height="16" fill="#FCC800"/>
<rect x="116" y="32" width="16" height="16" fill="#FCC800"/>
<rect x="116" y="12" width="16" height="16" fill="#FCC800"/>
<rect x="4" y="184" width="52" height="4" class="line"/>
<path d="M20 168H4V184H20V168Z" fill="#FCC800"/>
<rect x="68" y="172" width="16" height="16" fill="#FCC800"/>
<rect x="68" y="72" width="16" height="16" fill="#FCC800"/>
<rect x="68" y="92" width="16" height="16" fill="#FCC800"/>
<rect x="68" y="112" width="16" height="16" fill="#FCC800"/>
<rect x="68" y="132" width="16" height="16" fill="#FCC800"/>
<rect x="68" y="152" width="16" height="16" fill="#FCC800"/>
<rect x="68" y="52" width="16" height="16" fill="#FCC800"/>
</svg>
